<svg xmlns="http://www.w3.org/2000/svg" xmlns:xlink="http://www.w3.org/1999/xlink" viewBox="0 0 48 48" shape-rendering="geometricPrecision" text-rendering="geometricPrecision" height="48" width="48" aria-hidden="true" focusable="false">
<style>
.is-in-view #ec9v9skqcxz2_tr {animation: ec9v9skqcxz2_tr__tr 2000ms linear normal forwards}@keyframes ec9v9skqcxz2_tr__tr { 0% {transform: translate(24px,24px) rotate(0deg)} 41% {transform: translate(24px,24px) rotate(0deg);animation-timing-function: cubic-bezier(0.420000,0,0.580000,1)} 53.500000% {transform: translate(24px,24px) rotate(-6deg);animation-timing-function: cubic-bezier(0.420000,0,0.580000,1)} 66% {transform: translate(24px,24px) rotate(0deg);animation-timing-function: cubic-bezier(0.420000,0,0.580000,1)} 78.500000% {transform: translate(24px,24px) rotate(6deg);animation-timing-function: cubic-bezier(0.420000,0,0.580000,1)} 90.500000% {transform: translate(24px,24px) rotate(0deg)} 100% {transform: translate(24px,24px) rotate(0deg)} }
.is-in-view #ec9v9skqcxz5 {animation: ec9v9skqcxz5__sz 2000ms linear normal forwards}@keyframes ec9v9skqcxz5__sz { 0% {width: 20px;height: 4px} 1% {width: 0px;height: 4px;animation-timing-function: cubic-bezier(0.420000,0,0.580000,1)} 41% {width: 20px;height: 4px} 100% {width: 20px;height: 4px} }
.is-in-view #ec9v9skqcxz6 {animation: ec9v9skqcxz6__sz 2000ms linear normal forwards}@keyframes ec9v9skqcxz6__sz { 0% {width: 20px;height: 4px} 1% {width: 0px;height: 4px;animation-timing-function: cubic-bezier(0.420000,0,0.580000,1)} 41% {width: 20px;height: 4px} 100% {width: 20px;height: 4px} }
.is-in-view #ec9v9skqcxz7 {animation: ec9v9skqcxz7__sz 2000ms linear normal forwards}@keyframes ec9v9skqcxz7__sz { 0% {width: 4px;height: 15px} 1% {width: 4px;height: 0px;animation-timing-function: cubic-bezier(0.420000,0,0.580000,1)} 41% {width: 4px;height: 15px} 100% {width: 4px;height: 15px} }
.is-in-view #ec9v9skqcxz8 {animation: ec9v9skqcxz8__sz 2000ms linear normal forwards}@keyframes ec9v9skqcxz8__sz { 0% {width: 4px;height: 15px} 1% {width: 4px;height: 0px;animation-timing-function: cubic-bezier(0.420000,0,0.580000,1)} 41% {width: 4px;height: 15px} 100% {width: 4px;height: 15px} }
.is-in-view #ec9v9skqcxz9_ts {animation: ec9v9skqcxz9_ts__ts 2000ms linear normal forwards}@keyframes ec9v9skqcxz9_ts__ts { 0% {transform: translate(24.000066px,23.878383px) rotate(0.722612deg) scale(1,1)} 1% {transform: translate(24.000066px,23.878383px) rotate(0.722612deg) scale(0.650000,0.650000)} 27% {transform: translate(24.000066px,23.878383px) rotate(0.722612deg) scale(0.650000,0.650000);animation-timing-function: cubic-bezier(0.420000,0,0.580000,1)} 35.500000% {transform: translate(24.000066px,23.878383px) rotate(0.722612deg) scale(1.080000,1.080000);animation-timing-function: cubic-bezier(0.420000,0,0.580000,1)} 41% {transform: translate(24.000066px,23.878383px) rotate(0.722612deg) scale(1,1)} 100% {transform: translate(24.000066px,23.878383px) rotate(0.722612deg) scale(1,1)} }
.is-in-view #ec9v9skqcxz9 {animation: ec9v9skqcxz9_c_o 2000ms linear normal forwards}@keyframes ec9v9skqcxz9_c_o { 0% {opacity: 1} 1% {opacity: 0} 27% {opacity: 0;animation-timing-function: cubic-bezier(0.420000,0,0.580000,1)} 41% {opacity: 1} 100% {opacity: 1} }</style>
<g id="ec9v9skqcxz2_tr" transform="translate(24,24) rotate(0)">
<g id="ec9v9skqcxz2" transform="translate(-24,-24)">
<rect id="ec9v9skqcxz3" width="48" height="48" rx="0" ry="0" fill="none" stroke="none" stroke-width="1"></rect>
<path id="ec9v9skqcxz4" d="M42,9L6,9L4,11L4,37L6,39L42,39L44,37L44,11Z" fill="rgb(230,225,240)" stroke="none" stroke-width="1"></path>
<rect id="ec9v9skqcxz5" width="20" height="4" rx="0" ry="0" transform="matrix(1 0 0 1 4 22)" fill="rgb(34,34,34)" stroke="none" stroke-width="1"></rect>
<rect id="ec9v9skqcxz6" width="20" height="4" rx="0" ry="0" transform="matrix(-1 0 -0 -1 44 26)" fill="rgb(34,34,34)" stroke="none" stroke-width="1"></rect>
<rect id="ec9v9skqcxz7" width="4" height="15" rx="0" ry="0" transform="matrix(-1 0 -0 -1 26 39)" fill="rgb(34,34,34)" stroke="none" stroke-width="1"></rect>
<rect id="ec9v9skqcxz8" width="4" height="15" rx="0" ry="0" transform="matrix(1 0 0 1 22 9)" fill="rgb(34,34,34)" stroke="none" stroke-width="1"></rect>
<g id="ec9v9skqcxz9_ts" transform="translate(24.000066,23.878383) rotate(0.722612) scale(1,1)">
<path id="ec9v9skqcxz9" d="M33.240000,21.437260C33.368817,21.332860,33.492151,21.221872,33.609510,21.104740C35.463596,19.250654,35.463596,16.244586,33.609510,14.390500C31.755424,12.536414,28.749356,12.536414,26.895270,14.390500C26.777850,14.508224,26.666579,14.631925,26.561900,14.761110C25.364576,16.287869,24.493631,18.044300,24.003060,19.921510C23.511644,18.042942,22.638196,16.285864,21.437260,14.760000C21.332868,14.631213,21.221921,14.507880,21.104860,14.390490C19.250774,12.536404,16.244706,12.536404,14.390620,14.390490C12.536534,16.244576,12.536534,19.250644,14.390620,21.104730C14.508289,21.222208,14.631993,21.333482,14.761230,21.438100C16.836294,22.984154,19.242685,24.026085,21.790000,24.481450L14.343100,31.928450L17.171590,34.756820L24,27.928470L30.828490,34.756840L33.656860,31.928470L26.214110,24.485720C28.761789,24.031478,31.167866,22.987506,33.240000,21.437260ZM28.825210,16.730260L28.859260,16.691200L28.891980,16.650920C28.931052,16.602491,28.972612,16.556122,29.016490,16.512000C29.699305,15.831643,30.804051,15.832586,31.485704,16.514106C32.167357,17.195627,32.168514,18.300373,31.488290,18.983320C31.444148,19.027282,31.397752,19.068921,31.349290,19.108070L31.308520,19.141280L31.268850,19.175820C29.921347,20.180644,28.378443,20.892296,26.739380,21.265000C27.111979,19.624887,27.822361,18.080447,28.825200,16.730220ZM16.730350,19.174800L16.691410,19.140870L16.651410,19.108400C16.602770,19.069174,16.556198,19.027451,16.511880,18.983400C15.830447,18.300681,15.830982,17.194974,16.513074,16.512914C17.195167,15.830855,18.300874,15.830374,18.983560,16.511840C19.027402,16.555915,19.068921,16.602241,19.107950,16.650630L19.141150,16.691530L19.175820,16.731200C20.180697,18.078720,20.892409,19.621646,21.265180,21.260740C19.625022,20.888164,18.080554,20.177736,16.730350,19.174800Z" transform="translate(-24.000066,-23.878383)" fill="rgb(149,96,184)" stroke="none" stroke-width="1"></path>
</g></g></g>
</svg>