<svg xmlns="http://www.w3.org/2000/svg" xmlns:xlink="http://www.w3.org/1999/xlink" viewBox="0 0 48 48" shape-rendering="geometricPrecision" text-rendering="geometricPrecision" height="48" width="48" aria-hidden="true" focusable="false"><style>#efjhrw4x3kkp4_ts {animation: efjhrw4x3kkp4_ts__ts 2000ms linear 1 normal forwards}@keyframes efjhrw4x3kkp4_ts__ts { 0% {transform: translate(19.757360px,25.029440px) scale(1,1)} 20% {transform: translate(19.757360px,25.029440px) scale(1,1)} 25% {transform: translate(19.757360px,25.029440px) scale(1,0.100000)} 30% {transform: translate(19.757360px,25.029440px) scale(1,1)} 70% {transform: translate(19.757360px,25.029440px) scale(1,1)} 75% {transform: translate(19.757360px,25.029440px) scale(1,0.100000)} 80% {transform: translate(19.757360px,25.029440px) scale(1,1)} 100% {transform: translate(19.757360px,25.029440px) scale(1,1)} }#efjhrw4x3kkp8_ts {animation: efjhrw4x3kkp8_ts__ts 2000ms linear 1 normal forwards}@keyframes efjhrw4x3kkp8_ts__ts { 0% {transform: translate(12px,6px) scale(0.500000,0.500000)} 17.500000% {transform: translate(12px,6px) scale(1,1)} 35% {transform: translate(12px,6px) scale(0.500000,0.500000)} 52.500000% {transform: translate(12px,6px) scale(1,1)} 70% {transform: translate(12px,6px) scale(0.500000,0.500000)} 87.500000% {transform: translate(12px,6px) scale(1,1)} 100% {transform: translate(12px,6px) scale(1,1)} }#efjhrw4x3kkp8 {animation: efjhrw4x3kkp8_c_o 2000ms linear 1 normal forwards}@keyframes efjhrw4x3kkp8_c_o { 0% {opacity: 0} 17.500000% {opacity: 1} 35% {opacity: 0} 52.500000% {opacity: 1} 70% {opacity: 0} 87.500000% {opacity: 1} 100% {opacity: 1} }#efjhrw4x3kkp9_ts {animation: efjhrw4x3kkp9_ts__ts 2000ms linear 1 normal forwards}@keyframes efjhrw4x3kkp9_ts__ts { 0% {transform: translate(36px,6px) scale(0.500000,0.500000)} 17.500000% {transform: translate(36px,6px) scale(0.500000,0.500000)} 35% {transform: translate(36px,6px) scale(1,1)} 52.500000% {transform: translate(36px,6px) scale(0.500000,0.500000)} 70% {transform: translate(36px,6px) scale(1,1)} 100% {transform: translate(36px,6px) scale(1,1)} }#efjhrw4x3kkp9 {animation: efjhrw4x3kkp9_c_o 2000ms linear 1 normal forwards}@keyframes efjhrw4x3kkp9_c_o { 0% {opacity: 0} 17.500000% {opacity: 0} 35% {opacity: 1} 52.500000% {opacity: 0} 70% {opacity: 1} 100% {opacity: 1} }</style><rect id="efjhrw4x3kkp2" width="48" height="48" rx="0" ry="0" fill="none" stroke="none" stroke-width="1"></rect><path id="efjhrw4x3kkp3" d="M20.464470,13.008620L19.757360,13.715730L22.585790,16.544160L19.757360,19.372580L14.100510,25.029440L12.686290,26.443650L19.757360,33.514720L21.171570,32.100510L22.585790,30.686290L24,29.272080L32.485280,37.757360L33.899490,39.171570L40.970560,32.100510L41.677670,31.393400L24.707110,14.422840C23.292890,13.008620,21.878680,11.594410,20.464470,13.008620Z" fill="rgb(230,225,240)" stroke="none" stroke-width="1"></path><g id="efjhrw4x3kkp4_ts" transform="translate(19.757360,25.029440) scale(1,1)"><circle id="efjhrw4x3kkp4" r="2" transform="translate(0.000040,-0.000040)" fill="rgb(34,34,34)" stroke="none" stroke-width="1"></circle></g><path id="efjhrw4x3kkp5" d="M24.707110,14.422840L41.677670,31.393400L44.506100,28.565000L41.677670,25.736570L44.152540,23.261700L43.799000,22.201000L37.435000,21.493890L40.970530,17.958360L40.617000,16.897710L33.192380,17.251260L35.667250,14.776390L35.313700,13.715730L28.949700,13.008620L27.535480,11.594410C24.707110,8.766000,20.464470,7.351770,17.636000,10.180190L15.514680,12.301520C15.514760,13.406110,15.514760,14.025350,15.514680,15.129940L16.928890,16.544160L7.029440,26.443650C4.201000,29.272080,4.201000,34.928930,7.736540,38.464470L11.272080,42L16.928930,42L19.757360,39.171570L22.585790,36.343150L24,34.928930L31.071070,42L33.899490,39.171570L24,29.272080L22.585790,30.686290L21.171570,32.100510L19.757360,33.514720L12.686290,26.443650L19.757360,19.372580L22.585790,16.544160L19.757360,13.715730L20.464470,13.008620C21.878680,11.594410,23.292890,13.008620,24.707110,14.422840ZM16.928930,36.343150L14.100510,39.171570L10.565000,35.636000C8.443680,33.514680,8.443680,30.686250,9.857890,29.272000Z" fill="rgb(34,34,34)" stroke="none" stroke-width="1"></path><path id="efjhrw4x3kkp6" d="M16.928930,36.343150L9.857860,29.272080C8.443650,30.686290,8.443650,33.514720,10.564970,35.636080L14.100510,39.171610Z" fill="rgb(230,225,240)" stroke="none" stroke-width="1"></path><path id="efjhrw4x3kkp7" d="M15.161170,18.311920L4.908170,11.594410L4.908170,11.594410L3.493900,13.008620L3.493900,13.008620L10.211420,23.261620Z" fill="rgb(149,96,184)" stroke="none" stroke-width="1"></path><g id="efjhrw4x3kkp8_ts" transform="translate(12,6) scale(0.500000,0.500000)"><polygon id="efjhrw4x3kkp8" points="12,10 10.500000,7.500000 8,6 10.500000,4.500000 12,2 13.500000,4.500000 16,6 13.500000,7.500000 12,10" transform="translate(-12,-6)" opacity="0" fill="rgb(149,96,184)" stroke="none" stroke-width="1"></polygon></g><g id="efjhrw4x3kkp9_ts" transform="translate(36,6) scale(0.500000,0.500000)"><polygon id="efjhrw4x3kkp9" points="36,10 34.500000,7.500000 32,6 34.500000,4.500000 36,2 37.500000,4.500000 40,6 37.500000,7.500000 36,10" transform="translate(-36,-6)" opacity="0" fill="rgb(149,96,184)" stroke="none" stroke-width="1"></polygon></g></svg>